<?xml version="1.0" encoding="UTF-8" standalone="no"?>
<!-- Created with Inkscape (http://www.inkscape.org/) -->

<svg
   width="8.5in"
   height="14.0in"
   viewBox="0 0 8.5 14.0"
   version="1.1"
   id="SVGRoot"
   sodipodi:docname="github.svg"
   inkscape:version="1.1.1 (3bf5ae0d25, 2021-09-20)"
   xmlns:inkscape="http://www.inkscape.org/namespaces/inkscape"
   xmlns:sodipodi="http://sodipodi.sourceforge.net/DTD/sodipodi-0.dtd"
   xmlns="http://www.w3.org/2000/svg"
   xmlns:svg="http://www.w3.org/2000/svg">
  <sodipodi:namedview
     id="namedview14"
     pagecolor="#ffffff"
     bordercolor="#666666"
     borderopacity="1.0"
     inkscape:pageshadow="2"
     inkscape:pageopacity="0.0"
     inkscape:pagecheckerboard="0"
     inkscape:document-units="in"
     showgrid="false"
     inkscape:zoom="0.7500982"
     inkscape:cx="396.61473"
     inkscape:cy="561.25984"
     inkscape:window-width="1920"
     inkscape:window-height="1046"
     inkscape:window-x="-11"
     inkscape:window-y="-11"
     inkscape:window-maximized="1"
     inkscape:current-layer="layer1" />
  <defs
     id="defs9" />
  <g
     inkscape:label="Layer 1"
     inkscape:groupmode="layer"
     id="layer1">
    <g
       id="g29"
       transform="matrix(0.08831958,0,0,0.09008798,-0.18726934,0.8837844)">
      <circle
         class="outer-shape"
         cx="50"
         cy="50"
         r="48"
         style="opacity:1;fill:#000000"
         id="circle18" />
      <path
         class="inner-shape"
         style="opacity:1;fill:#ffffff"
         transform="matrix(0.5,0,0,0.5,25,25)"
         d="M 50,1 C 22.938,1 1,22.938 1,50 1,77.062 22.938,99 50,99 77.062,99 99,77.062 99,50 99,22.938 77.062,1 50,1 Z m 29.099,78.099 c -3.782,3.782 -8.184,6.75 -13.083,8.823 -1.245,0.526 -2.509,0.989 -3.79,1.387 v -7.344 c 0,-3.86 -1.324,-6.699 -3.972,-8.517 1.659,-0.16 3.182,-0.383 4.57,-0.67 1.388,-0.287 2.855,-0.702 4.402,-1.245 1.547,-0.543 2.935,-1.189 4.163,-1.938 1.228,-0.75 2.409,-1.723 3.541,-2.919 1.132,-1.196 2.082,-2.552 2.847,-4.067 0.765,-1.515 1.372,-3.334 1.818,-5.455 0.446,-2.121 0.67,-4.458 0.67,-7.01 0,-4.945 -1.611,-9.155 -4.833,-12.633 1.467,-3.828 1.308,-7.991 -0.478,-12.489 l -1.197,-0.143 c -0.829,-0.096 -2.321,0.255 -4.474,1.053 -2.153,0.798 -4.57,2.105 -7.249,3.924 -3.797,-1.053 -7.736,-1.579 -11.82,-1.579 -4.115,0 -8.039,0.526 -11.772,1.579 -1.69,-1.149 -3.294,-2.097 -4.809,-2.847 -1.515,-0.75 -2.727,-1.26 -3.637,-1.532 -0.909,-0.271 -1.754,-0.439 -2.536,-0.503 -0.782,-0.064 -1.284,-0.079 -1.507,-0.048 -0.223,0.031 -0.383,0.064 -0.478,0.096 -1.787,4.53 -1.946,8.694 -0.478,12.489 -3.222,3.477 -4.833,7.688 -4.833,12.633 0,2.552 0.223,4.889 0.67,7.01 0.447,2.121 1.053,3.94 1.818,5.455 0.765,1.515 1.715,2.871 2.847,4.067 1.132,1.196 2.313,2.169 3.541,2.919 1.228,0.751 2.616,1.396 4.163,1.938 1.547,0.543 3.014,0.957 4.402,1.245 1.388,0.287 2.911,0.511 4.57,0.67 -2.616,1.787 -3.924,4.626 -3.924,8.517 v 7.487 C 36.806,89.022 35.382,88.514 33.983,87.922 29.084,85.849 24.682,82.881 20.9,79.099 17.118,75.317 14.15,70.915 12.077,66.016 9.934,60.948 8.847,55.56 8.847,50 c 0,-5.56 1.087,-10.948 3.231,-16.016 2.073,-4.899 5.041,-9.301 8.823,-13.083 3.782,-3.782 8.184,-6.75 13.083,-8.823 C 39.052,9.934 44.44,8.847 50,8.847 c 5.56,0 10.948,1.087 16.016,3.231 4.9,2.073 9.301,5.041 13.083,8.823 3.782,3.782 6.75,8.184 8.823,13.083 2.143,5.069 3.23,10.457 3.23,16.016 0,5.559 -1.087,10.948 -3.231,16.016 -2.073,4.899 -5.041,9.301 -8.822,13.083 z"
         id="path20" />
    </g>
  </g>
</svg>
